<svg width="20" height="20" viewBox="0 0 20 20" fill="none" xmlns="http://www.w3.org/2000/svg">
<path d="M9.96133 0C4.46055 0 0 4.58446 0 10.2399C0 14.7642 2.85422 18.6025 6.81219 19.9565C7.31 20.0513 7.49281 19.7344 7.49281 19.4639C7.49281 19.2197 7.48352 18.413 7.4793 17.5574C4.70797 18.1768 4.1232 16.3492 4.1232 16.3492C3.67008 15.1656 3.01719 14.851 3.01719 14.851C2.11344 14.2154 3.08531 14.2284 3.08531 14.2284C4.08563 14.3007 4.61234 15.2837 4.61234 15.2837C5.50078 16.8492 6.94266 16.3965 7.51109 16.135C7.60047 15.4731 7.85867 15.0214 8.14352 14.7657C5.93102 14.5067 3.60508 13.6287 3.60508 9.70507C3.60508 8.58716 3.99422 7.67364 4.63148 6.95656C4.52805 6.69861 4.18711 5.65716 4.72797 4.24668C4.72797 4.24668 5.56445 3.97146 7.46805 5.29633C8.26258 5.06937 9.11477 4.95565 9.96133 4.9518C10.8079 4.95565 11.6607 5.06937 12.4568 5.29633C14.3581 3.97146 15.1934 4.24668 15.1934 4.24668C15.7356 5.65716 15.3945 6.69861 15.2911 6.95656C15.9298 7.67364 16.3163 8.58708 16.3163 9.70507C16.3163 13.638 13.9859 14.504 11.7678 14.7575C12.1251 15.0753 12.4434 15.6985 12.4434 16.6538C12.4434 18.0238 12.4319 19.1266 12.4319 19.4639C12.4319 19.7364 12.6112 20.0557 13.1162 19.9551C17.072 18.5996 19.9226 14.7626 19.9226 10.2399C19.9226 4.58446 15.4627 0 9.96133 0Z" fill="#953A1D"/>
</svg>
