<svg width="20" height="20" viewBox="0 0 20 20" fill="none" xmlns="http://www.w3.org/2000/svg">
<path d="M9.99998 0.00012207C4.47711 0.00012207 0 4.47723 0 10.0001C0 15.523 4.47711 20.0001 9.99998 20.0001C15.5229 20.0001 20 15.523 20 10.0001C20 4.47723 15.5228 0.00012207 9.99998 0.00012207ZM7.33197 14.8346H5.13637V7.74128H7.33197V14.8346ZM6.2237 6.81236C5.50665 6.81236 4.92534 6.22632 4.92534 5.50351C4.92534 4.78063 5.50673 4.19463 6.2237 4.19463C6.94068 4.19463 7.52199 4.78063 7.52199 5.50351C7.52203 6.22636 6.94072 6.81236 6.2237 6.81236ZM15.56 14.8346H13.375V11.1112C13.375 10.09 12.9871 9.51993 12.1796 9.51993C11.3008 9.51993 10.8416 10.1136 10.8416 11.1112V14.8346H8.7358V7.74128H10.8416V8.69664C10.8416 8.69664 11.4751 7.52492 12.9791 7.52492C14.4833 7.52492 15.56 8.44332 15.56 10.3432L15.56 14.8346Z" fill="#953A1D"/>
</svg>
