<svg width="20" height="13" viewBox="0 0 20 13" fill="none" xmlns="http://www.w3.org/2000/svg">
<path d="M10 10.3333C11.0417 10.3333 11.9271 9.96867 12.6563 9.2395C13.3855 8.51034 13.75 7.62492 13.75 6.58325C13.75 5.54159 13.3855 4.65617 12.6563 3.927C11.9271 3.19784 11.0417 2.83325 10 2.83325C8.95837 2.83325 8.07296 3.19784 7.34379 3.927C6.61462 4.65617 6.25004 5.54159 6.25004 6.58325C6.25004 7.62492 6.61462 8.51034 7.34379 9.2395C8.07296 9.96867 8.95837 10.3333 10 10.3333ZM10 8.83325C9.37504 8.83325 8.84379 8.6145 8.40629 8.177C7.96879 7.7395 7.75004 7.20825 7.75004 6.58325C7.75004 5.95825 7.96879 5.427 8.40629 4.9895C8.84379 4.552 9.37504 4.33325 10 4.33325C10.625 4.33325 11.1563 4.552 11.5938 4.9895C12.0313 5.427 12.25 5.95825 12.25 6.58325C12.25 7.20825 12.0313 7.7395 11.5938 8.177C11.1563 8.6145 10.625 8.83325 10 8.83325ZM10 12.8333C7.97226 12.8333 6.12504 12.2673 4.45837 11.1353C2.79171 10.0034 1.58337 8.48603 0.833374 6.58325C1.58337 4.68047 2.79171 3.16311 4.45837 2.03117C6.12504 0.899224 7.97226 0.333252 10 0.333252C12.0278 0.333252 13.875 0.899224 15.5417 2.03117C17.2084 3.16311 18.4167 4.68047 19.1667 6.58325C18.4167 8.48603 17.2084 10.0034 15.5417 11.1353C13.875 12.2673 12.0278 12.8333 10 12.8333Z" fill="#F5EEDC"/>
</svg>
